# xmcd
#
# Track frame offsets:
#	150
#	11482
#	29715
#	39402
#	48725
#	59865
#	73756
#	85039
#	102934
#	118471
#	128567
#	145834
#	164228
#	174192
#	187661
#	211194
#	226758
#	246396
#
# Disc length: 3334 seconds
#
# Revision: 1
# Processed by: cddbd v1.5.2PL0 Copyright (c) Steve Scherf et al.
# Submitted via: audiograbber 1.83.01
#
DISCID=030d0412
DTITLE=Stefan Mönkemeyer - Stringvoices
DYEAR=2007
DGENRE=Guitar
TTITLE0=Morning Sun
TTITLE1=The Sky Is The Limit
TTITLE2=Robert's Blues
TTITLE3=Sleepless Night
TTITLE4=Your Song
TTITLE5=Keep It Simple (Tommy Emmanuel)
TTITLE6=So Hard To Say Goodbye
TTITLE7=It Doesn't Matter (Harley Allen)
TTITLE8=Bouree In EMoll (J.S. Bach)
TTITLE9=Chetiquette
TTITLE10=By The Way
TTITLE11=Eternity
TTITLE12=Es wäre schön gewesen (Uli Bögershausen)
TTITLE13=Train In The Rain
TTITLE14=Monk Theme (Jeff Beal)
TTITLE15=When You Say Nothing At All (Overstreet/Schilitz)
TTITLE16=Message In A Bottle (Sting)
TTITLE17=A Little Lullaby
EXTD=
EXTT0=
EXTT1=
EXTT2=
EXTT3=
EXTT4=
EXTT5=
EXTT6=
EXTT7=
EXTT8=
EXTT9=
EXTT10=
EXTT11=
EXTT12=
EXTT13=
EXTT14=
EXTT15=
EXTT16=
EXTT17=
PLAYORDER=
